<?xml version="1.0" encoding="UTF-8"?>
<!DOCTYPE svg PUBLIC "-//W3C//DTD SVG 1.1//EN" "http://www.w3.org/Graphics/SVG/1.1/DTD/svg11.dtd">
<!-- Creator: CorelDRAW 2018 -->
<svg xmlns="http://www.w3.org/2000/svg" xml:space="preserve" width="3.25349in" height="2.77305in" version="1.1" style="shape-rendering:geometricPrecision; text-rendering:geometricPrecision; image-rendering:optimizeQuality; fill-rule:evenodd; clip-rule:evenodd"
viewBox="0 0 149.72 127.61"
 xmlns:xlink="http://www.w3.org/1999/xlink">
 <defs>
  <style type="text/css">
   <![CDATA[
    .str1 {stroke:#2196F3;stroke-width:0.46;stroke-miterlimit:2.61313}
    .str0 {stroke:#00CCFF;stroke-width:0.46;stroke-miterlimit:2.61313}
    .fil8 {fill:none}
    .fil6 {fill:black}
    .fil3 {fill:#00CCFF}
    .fil4 {fill:#2196F3}
    .fil0 {fill:#2196F3}
    .fil2 {fill:#2F2E41}
    .fil7 {fill:#CCCCCC}
    .fil1 {fill:#FFB8B8}
    .fil5 {fill:white;fill-rule:nonzero}
   ]]>
  </style>
 </defs>
 <g id="Layer_x0020_1">
  <metadata id="CorelCorpID_0Corel-Layer"/>
  <g id="_514533608">
   <rect class="fil0" x="52.01" y="14.54" width="14.91" height="14.91" rx="1.89" ry="1.89"/>
   <circle class="fil1" cx="29.87" cy="28.75" r="6.84"/>
   <path class="fil1" d="M27.4 69.24c-0.09,0 -0.17,-0 -0.26,-0.01 -1.59,-0.13 -2.81,-1.46 -2.81,-3.05 0,-0.2 0.02,-0.4 0.06,-0.6 0.02,-0.1 0.05,-0.2 0.08,-0.29l-10.1 -11.94c-0.36,-0.43 -0.56,-0.97 -0.56,-1.53 0,-0.46 0.14,-0.92 0.39,-1.31l0.02 -0.02 9.09 -8.96c0.49,-0.48 1.15,-0.76 1.84,-0.76 1.45,0 2.63,1.18 2.63,2.63 0,0.72 -0.3,1.41 -0.82,1.9l-6.58 6.26 7.21 11.57c0.14,0.01 0.27,0.02 0.41,0.05 1.43,0.29 2.47,1.54 2.47,3.01 0,1.69 -1.37,3.06 -3.06,3.07l0 0z"/>
   <polygon class="fil1" points="41.14,123.98 44.56,123.98 46.19,110.81 41.14,110.81 "/>
   <path class="fil2" d="M40.27 122.87l6.73 -0 0 -0c0,0 0,0 0,0 2.37,0 4.29,1.92 4.29,4.29 0,0 0,0 0,0l0 0.14 -11.01 0 -0 -4.43z"/>
   <rect class="fil3" x="70.7" y="18.01" width="14.91" height="14.91" rx="1.89" ry="1.89"/>
   <polygon class="fil1" points="7.2,119.26 10.13,121.01 18.27,110.52 13.94,107.94 "/>
   <path class="fil2" d="M7.02 117.86l5.78 3.44 0 0c1.3,0.77 2.09,2.17 2.09,3.68 0,0.77 -0.21,1.53 -0.6,2.19l-0.07 0.12 -9.46 -5.63 2.26 -3.8z"/>
   <path class="fil2" d="M45.37 119.33l-3.82 0c-0,-0 -0,-0 -0,-0 -0.64,0 -1.18,-0.48 -1.24,-1.12l-3.86 -36.25c-0.02,-0.21 -0.2,-0.37 -0.42,-0.37 -0.16,0 -0.31,0.1 -0.38,0.25l-6.96 15.4 -12.32 20.08c-0.23,0.37 -0.63,0.6 -1.07,0.6 -0.17,0 -0.34,-0.04 -0.5,-0.1l-4.92 -2.16c-0.45,-0.2 -0.75,-0.65 -0.75,-1.15 0,-0.23 0.06,-0.45 0.18,-0.64l11.32 -18.96 3.47 -15.97c-1.09,-6.93 3.59,-17.22 3.64,-17.33l0.02 -0.05 12.9 -5.04 0.06 0.08c5.09,16.69 8.18,34.65 5.9,61.59 -0.06,0.65 -0.6,1.14 -1.25,1.15l0 0z"/>
   <path class="fil4" d="M27.24 63.24l-0.06 -0.13c-0.03,-0.06 -2.9,-6.11 -5.11,-12.57 -0.33,-0.99 -0.51,-2.03 -0.51,-3.07 0,-1.6 0.4,-3.17 1.17,-4.57 1.3,-2.37 3.53,-4.08 6.15,-4.73l0 -0c0.74,-0.18 1.49,-0.27 2.25,-0.27 3.94,0 7.48,2.39 8.95,6.04 1.75,4.38 1.19,9.06 0.67,12.74l-0.01 0.07 -0.07 0.03 -13.43 6.44z"/>
   <path class="fil2" d="M38.17 24.88l-10.87 0 0 -4.74c2.38,-0.95 4.72,-1.75 6.13,0 2.62,0 4.74,2.12 4.74,4.74z"/>
   <path class="fil2" d="M26.7 19.31c-6.5,0 -8.31,8.14 -8.31,12.74 0,2.56 1.16,3.48 2.98,3.79l0.64 -3.43 1.51 3.58c0.51,0 1.05,-0.01 1.61,-0.02l0.51 -1.05 1.14 1.03c4.56,0.01 8.25,0.67 8.25,-3.9 0,-4.59 -1.59,-12.74 -8.31,-12.74z"/>
   <path class="fil1" d="M55.58 28.42c0.04,0.08 0.08,0.15 0.11,0.23 0.17,0.39 0.26,0.81 0.26,1.24 0,1.34 -0.87,2.53 -2.15,2.93 -0.1,0.03 -0.19,0.05 -0.29,0.07l-5.64 14.59c-0.36,0.91 -1.24,1.51 -2.22,1.51 -0.06,0 -0.13,-0 -0.19,-0.01l-0.03 -0.01 -12.22 -3.68c-1.11,-0.33 -1.87,-1.36 -1.87,-2.52 0,-1.45 1.18,-2.63 2.63,-2.63 0.27,0 0.54,0.04 0.8,0.13l8.65 2.78 6.7 -11.87c-0.06,-0.12 -0.11,-0.25 -0.15,-0.38 -0.09,-0.3 -0.14,-0.6 -0.14,-0.91 0,-1.69 1.37,-3.07 3.07,-3.07 1.12,0 2.15,0.61 2.69,1.59l-0 0z"/>
   <polygon class="fil1" points="113.71,123.93 110.09,123.93 108.37,109.97 113.71,109.97 "/>
   <path class="fil2" d="M107.51 122.9l6.98 0 0 4.4 -11.38 0 0 0c0,0 0,0 0,0 0,-2.43 1.97,-4.4 4.4,-4.4l0 0z"/>
   <polygon class="fil1" points="140.22,113.92 137.54,116.36 126.86,107.2 130.81,103.6 "/>
   <path class="fil2" d="M134.94 117.34l5.16 -4.71 2.96 3.25 -8.41 7.67 0 0c0,0 0,0 0,0 -1.64,-1.79 -1.51,-4.57 0.28,-6.21l0 0z"/>
   <path class="fil5" d="M76.12 28.84c-0.07,0.2 -0.29,0.3 -0.49,0.23 -0.2,-0.07 -0.3,-0.29 -0.23,-0.49l2.34 -6.49c0.07,-0.2 0.29,-0.3 0.49,-0.23 0.11,0.04 0.19,0.12 0.23,0.23l2.46 6.49c0.07,0.2 -0.03,0.42 -0.22,0.49 -0.2,0.07 -0.42,-0.03 -0.49,-0.22l-0.69 -1.83c-0.03,0.01 -0.07,0.01 -0.1,0.01l-2.56 0c-0.03,0 -0.05,-0 -0.08,-0.01l-0.65 1.81zm3.11 -2.57l-1.12 -2.95 -1.06 2.95 2.18 0z"/>
   <path class="fil2" d="M110.15 120.74c-0,-0 -0,-0 -0,-0 -0.66,0 -1.22,-0.49 -1.31,-1.14l-3.15 -21.82c-0.09,-0.6 -0.13,-1.21 -0.13,-1.81 0,-0.49 0.03,-0.99 0.08,-1.47l3.07 -26.27 19.64 1.65 -2.96 24.9 11.21 13.98c0.19,0.24 0.29,0.53 0.29,0.83 0,0.38 -0.17,0.75 -0.46,1l-2.82 2.46c-0.24,0.21 -0.55,0.33 -0.87,0.33 -0.39,0 -0.76,-0.17 -1.01,-0.47l-10.62 -12.43c-1.64,-1.93 -2.83,-4.21 -3.46,-6.66l-1.52 -5.91c-0.05,-0.2 -0.23,-0.33 -0.43,-0.33 -0.19,0 -0.36,0.12 -0.42,0.3l-2.01 5.8 1.27 25.52c0,0.02 0,0.04 0,0.06 0,0.71 -0.55,1.29 -1.25,1.33l-3.06 0.17c-0.03,0 -0.05,0 -0.08,0z"/>
   <circle class="fil1" cx="121.07" cy="25.46" r="7.25"/>
   <path class="fil1" d="M78.94 33.89c0.47,1.08 1.54,1.78 2.72,1.78 0.59,0 1.16,-0.17 1.65,-0.5l9.51 5.76 -0.74 -4.87 -8.05 -5.2c-0.57,-0.73 -1.44,-1.16 -2.37,-1.16 -1.65,0 -2.99,1.34 -2.99,2.99 0,0.42 0.09,0.83 0.26,1.22l0 0z"/>
   <path class="fil3" d="M120.73 73.24l0 0c-3.85,0 -7.86,-1.19 -11.92,-3.55 -0.45,-0.26 -0.73,-0.75 -0.73,-1.28 0,-0.18 0.03,-0.35 0.09,-0.52l3.77 -10.16 -0.86 -11.97c-0.29,-4.07 1.74,-7.94 5.17,-9.85 1.39,-0.78 2.97,-1.19 4.57,-1.19 1.23,0 2.44,0.24 3.57,0.71 2.83,1.19 4.97,3.62 5.78,6.59l1.21 4.21c0.66,2.3 0.99,4.69 0.99,7.08 0,2.93 -0.5,5.84 -1.47,8.6l-3.51 9.85 -0.09 0.05c-0.02,0.02 -2.43,1.43 -6.58,1.43z"/>
   <path class="fil3" d="M83.97 37.27c-0.16,-0.24 -0.25,-0.53 -0.25,-0.82 0,-0.3 0.09,-0.59 0.26,-0.84l1.84 -2.65c0.28,-0.4 0.73,-0.64 1.21,-0.64 0.24,0 0.47,0.06 0.68,0.17l13.63 7.09 15.04 -1.51c0.13,-0.01 0.27,-0.02 0.4,-0.02 1.81,0 3.42,1.16 3.99,2.88 0.14,0.42 0.21,0.86 0.21,1.3 0,2.29 -1.84,4.15 -4.13,4.18l-14.02 0.14c-0.03,0 -0.06,0 -0.08,0 -1.45,0 -2.87,-0.37 -4.14,-1.06l-14.11 -7.74c-0.21,-0.11 -0.39,-0.28 -0.52,-0.48l0 0z"/>
   <path class="fil1" d="M127.32 79.73c0.71,-0.56 1.13,-1.42 1.13,-2.33 0,-0.85 -0.36,-1.65 -1,-2.22l3.54 -9.75 -4.88 1.04 -3.01 9.1c-0.41,0.52 -0.63,1.17 -0.63,1.83 0,1.65 1.34,2.99 2.99,2.99 0.68,0 1.33,-0.23 1.86,-0.65l0 0z"/>
   <path class="fil3" d="M128.62 74.06c-0,-0 -0,-0 -0,-0 -0.17,0 -0.34,-0.03 -0.51,-0.09l-3.03 -1.11c-0.58,-0.21 -0.97,-0.77 -0.97,-1.39 0,-0.11 0.01,-0.22 0.04,-0.33l3.44 -14.97 -5.24 -14.18c-0.17,-0.46 -0.25,-0.95 -0.25,-1.44 0,-1.42 0.72,-2.75 1.92,-3.53 0.67,-0.43 1.45,-0.66 2.25,-0.66 1.89,0 3.54,1.27 4.03,3.09l3.66 13.54c0.2,0.73 0.3,1.49 0.3,2.25 0,0.71 -0.09,1.42 -0.26,2.11l-3.94 15.6c-0.17,0.65 -0.76,1.11 -1.43,1.11 -0,0 -0,0 -0,0l-0 0z"/>
   <path class="fil6" d="M121.55 30.58c0.37,-1.53 0.55,-2.38 0.91,-3.91 0.24,-1.02 -0.49,-2.07 -1.42,-2.55 -0.92,-0.48 -1.99,-0.53 -3.03,-0.63 -1.03,-0.1 -2.12,-0.28 -2.92,-0.95 -1.08,-0.89 -1.39,-2.55 -0.86,-3.86 0.58,-1.3 1.76,-2.24 3.15,-2.52 0.37,-0.07 0.75,-0.1 1.13,-0.1 1.02,0 2.03,0.25 2.93,0.73 0.49,-1.14 1.9,-1.64 3.11,-1.44 1.21,0.2 2.26,0.94 3.25,1.68 1.83,1.38 3.71,3.06 4.12,5.34 0.39,2.2 -0.72,4.42 -2.22,6.07 -2.04,2.24 -4.78,3.72 -7.76,4.21 -0.3,-0.45 -0.45,-0.98 -0.45,-1.51 0,-0.19 0.02,-0.37 0.06,-0.55l0 0z"/>
   <path class="fil7" d="M149.43 127.61l-56.7 0c-0.16,-0 -0.3,-0.13 -0.3,-0.3 0,-0.16 0.13,-0.3 0.3,-0.3l56.7 0c0.16,-0 0.3,0.13 0.3,0.3 0,0.16 -0.13,0.3 -0.3,0.3l0 0z"/>
   <path class="fil7" d="M56.99 127.61l-56.7 0c-0.16,-0 -0.3,-0.13 -0.3,-0.3 0,-0.16 0.13,-0.3 0.3,-0.3l56.7 0c0.16,-0 0.3,0.13 0.3,0.3 0,0.16 -0.13,0.3 -0.3,0.3l0 0z"/>
   <g>
    <path class="fil8 str0" d="M99.26 14.02l4.85 0c0.45,0 0.82,0.37 0.82,0.82l0 4.85c0,0.45 -0.37,0.82 -0.82,0.82l-4.85 0c-0.45,0 -0.82,-0.37 -0.82,-0.82l0 -4.85c0,-0.45 0.37,-0.82 0.82,-0.82z"/>
   </g>
   <g>
    <path class="fil8 str0" d="M114.81 0.23l4.85 0c0.45,0 0.82,0.37 0.82,0.82l0 4.85c0,0.45 -0.37,0.82 -0.82,0.82l-4.85 0c-0.45,0 -0.82,-0.37 -0.82,-0.82l0 -4.85c0,-0.45 0.37,-0.82 0.82,-0.82z"/>
   </g>
   <g>
    <path class="fil8 str0" d="M137.11 28.95l4.85 0c0.45,0 0.82,0.37 0.82,0.82l0 4.85c0,0.45 -0.37,0.82 -0.82,0.82l-4.85 0c-0.45,0 -0.82,-0.37 -0.82,-0.82l0 -4.85c0,-0.45 0.37,-0.82 0.82,-0.82z"/>
   </g>
   <g>
    <path class="fil8 str1" d="M35.84 8.81l4.85 0c0.45,0 0.82,0.37 0.82,0.82l0 4.85c0,0.45 -0.37,0.82 -0.82,0.82l-4.85 0c-0.45,0 -0.82,-0.37 -0.82,-0.82l0 -4.85c0,-0.45 0.37,-0.82 0.82,-0.82z"/>
   </g>
   <g>
    <path class="fil8 str1" d="M3.46 19.31l4.85 0c0.45,0 0.82,0.37 0.82,0.82l0 4.85c0,0.45 -0.37,0.82 -0.82,0.82l-4.85 0c-0.45,0 -0.82,-0.37 -0.82,-0.82l0 -4.85c0,-0.45 0.37,-0.82 0.82,-0.82z"/>
   </g>
   <g>
    <path class="fil8 str1" d="M14.64 3.95l4.85 0c0.45,0 0.82,0.37 0.82,0.82l0 4.85c0,0.45 -0.37,0.82 -0.82,0.82l-4.85 0c-0.45,0 -0.82,-0.37 -0.82,-0.82l0 -4.85c0,-0.45 0.37,-0.82 0.82,-0.82z"/>
   </g>
   <path class="fil5" d="M55.79 24.88c0,0.21 -0.17,0.38 -0.38,0.38 -0.21,0 -0.38,-0.17 -0.38,-0.38l0 -4.76c0,-0.38 0.16,-0.73 0.41,-0.99 0.25,-0.25 0.6,-0.41 0.99,-0.41 0.38,0 0.73,0.16 0.99,0.41 0.25,0.25 0.41,0.6 0.41,0.99l0 2.38 0 0.68 0 0.68c0,0.17 0.06,0.32 0.17,0.43l0.02 0.01c0.11,0.11 0.27,0.19 0.45,0.19 0.17,0 0.33,-0.07 0.44,-0.19 0.11,-0.11 0.19,-0.27 0.19,-0.44l0 -0.68 0 -0.68 0 -2.38c0,-0.38 0.16,-0.73 0.41,-0.99 0.25,-0.25 0.6,-0.41 0.99,-0.41 0.38,0 0.73,0.16 0.99,0.41l0.02 0.02 0 0 0.03 -0.03c0.25,-0.25 0.6,-0.41 0.99,-0.41 0.38,0 0.73,0.16 0.99,0.41l0.02 0.02c0.24,0.25 0.39,0.59 0.39,0.96l0 4.76c0,0.21 -0.17,0.38 -0.38,0.38 -0.21,0 -0.38,-0.17 -0.38,-0.38l0 -4.76c0,-0.17 -0.06,-0.32 -0.17,-0.43l-0.02 -0.01c-0.11,-0.11 -0.27,-0.19 -0.44,-0.19 -0.17,0 -0.33,0.07 -0.45,0.19 -0.11,0.11 -0.19,0.27 -0.19,0.45l0 4.76c0,0.21 -0.17,0.38 -0.38,0.38 -0.21,0 -0.38,-0.17 -0.38,-0.38l0 -4.76c0,-0.17 -0.06,-0.32 -0.17,-0.43l-0.02 -0.01c-0.11,-0.11 -0.27,-0.19 -0.44,-0.19 -0.17,0 -0.33,0.07 -0.45,0.19 -0.11,0.11 -0.19,0.27 -0.19,0.45l0 2.38 0 0.68 0 0.68c0,0.38 -0.16,0.73 -0.41,0.99 -0.25,0.25 -0.6,0.41 -0.99,0.41 -0.38,0 -0.73,-0.16 -0.99,-0.41l-0.02 -0.02c-0.24,-0.25 -0.39,-0.59 -0.39,-0.96l0 -0.68 0 -0.68 0 -2.38c0,-0.17 -0.07,-0.33 -0.19,-0.44 -0.11,-0.11 -0.27,-0.19 -0.44,-0.19 -0.17,0 -0.33,0.07 -0.45,0.19 -0.11,0.11 -0.19,0.27 -0.19,0.45l0 4.76z"/>
  </g>
 </g>
</svg>
