<?xml version="1.0" encoding="UTF-8"?>
<!DOCTYPE svg PUBLIC "-//W3C//DTD SVG 1.1//EN" "http://www.w3.org/Graphics/SVG/1.1/DTD/svg11.dtd">
<!-- Creator: CorelDRAW 2018 -->
<svg xmlns="http://www.w3.org/2000/svg" xml:space="preserve" width="131px" height="94px" version="1.1" shape-rendering="geometricPrecision" text-rendering="geometricPrecision" image-rendering="optimizeQuality" fill-rule="evenodd" clip-rule="evenodd"
viewBox="0 0 3.63 2.59"
 xmlns:xlink="http://www.w3.org/1999/xlink">
 <g id="Layer_x0020_1">
  <metadata id="CorelCorpID_0Corel-Layer"/>
  <g id="_359012240">
   <path fill="#444444" fill-rule="nonzero" d="M1.46 0.51l-0.31 0 -0.05 0.14 -0.15 0 0.28 -0.65 0.15 0 0.28 0.65 -0.15 0 -0.05 -0.14 0 0zm-0.05 -0.11l-0.11 -0.25 -0.1 0.25 0.21 0z"/>
   <path fill="#444444" fill-rule="nonzero" d="M1.46 2.45l-0.31 0 -0.05 0.14 -0.15 0 0.28 -0.65 0.15 0 0.28 0.65 -0.15 0 -0.05 -0.14 0 0zm-0.05 -0.12l-0.11 -0.24 -0.1 0.24 0.21 0z"/>
   <path fill="#444444" fill-rule="nonzero" d="M3.42 1.48l-0.3 0 -0.06 0.14 -0.15 0 0.28 -0.65 0.16 0 0.28 0.65 -0.15 0 -0.06 -0.14 0 0zm-0.05 -0.11l-0.1 -0.25 -0.1 0.25 0.2 0z"/>
   <path fill="#444444" fill-rule="nonzero" d="M3.42 0.51l-0.3 0 -0.06 0.14 -0.15 0 0.28 -0.65 0.16 0 0.28 0.65 -0.15 0 -0.06 -0.14 0 0zm-0.05 -0.11l-0.1 -0.25 -0.1 0.25 0.2 0z"/>
   <path fill="#444444" fill-rule="nonzero" d="M1.46 1.48l-0.31 0 -0.05 0.14 -0.15 0 0.28 -0.65 0.15 0 0.28 0.65 -0.15 0 -0.05 -0.14 0 0zm-0.05 -0.11l-0.11 -0.25 -0.1 0.25 0.21 0z"/>
   <path fill="#444444" fill-rule="nonzero" d="M2.41 1.62l-0.12 -0.18 -0.01 0 -0.13 0 0 0.18 -0.15 0 0 -0.65 0.28 0c0.05,0 0.11,0.01 0.15,0.03 0.05,0.02 0.07,0.05 0.09,0.08 0.03,0.04 0.04,0.07 0.04,0.13 0,0.05 -0.01,0.08 -0.04,0.12 -0.02,0.03 -0.05,0.06 -0.09,0.08l0.14 0.21 -0.16 0zm0 -0.41c0,-0.04 -0.01,-0.07 -0.04,-0.09 -0.02,-0.01 -0.05,-0.02 -0.1,-0.02l-0.12 0 0 0.22 0.12 0c0.05,0 0.08,-0.02 0.1,-0.03 0.03,-0.02 0.04,-0.05 0.04,-0.08l0 0z"/>
   <path fill="#444444" fill-rule="nonzero" d="M0.35 1.63c-0.07,0 -0.12,-0.01 -0.18,-0.04 -0.05,-0.03 -0.09,-0.07 -0.12,-0.13 -0.03,-0.04 -0.05,-0.1 -0.05,-0.17 0,-0.06 0.02,-0.12 0.05,-0.17 0.03,-0.05 0.07,-0.09 0.12,-0.12 0.06,-0.03 0.11,-0.05 0.18,-0.05 0.06,0 0.11,0.02 0.15,0.04 0.05,0.02 0.09,0.05 0.11,0.09l-0.09 0.08c-0.04,-0.04 -0.09,-0.07 -0.16,-0.07 -0.04,0 -0.08,0.01 -0.1,0.03 -0.04,0.01 -0.06,0.03 -0.08,0.07 -0.02,0.03 -0.03,0.07 -0.03,0.1 0,0.04 0.01,0.08 0.03,0.11 0.02,0.04 0.04,0.06 0.08,0.07 0.02,0.02 0.06,0.03 0.1,0.03 0.07,0 0.12,-0.03 0.16,-0.07l0.09 0.08c-0.02,0.04 -0.06,0.07 -0.11,0.09 -0.05,0.02 -0.09,0.03 -0.15,0.03l0 0z"/>
   <polygon fill="#444444" fill-rule="nonzero" points="2.58,0 2.58,0.65 2.46,0.65 2.14,0.26 2.14,0.65 1.99,0.65 1.99,0 2.12,0 2.44,0.4 2.44,0 "/>
   <polygon fill="#444444" fill-rule="nonzero" points="0.6,0 0.6,0.65 0.45,0.65 0.45,0.38 0.16,0.38 0.16,0.65 0.01,0.65 0.01,0 0.16,0 0.16,0.26 0.45,0.26 0.45,0 "/>
   <polygon fill="#444444" fill-rule="nonzero" points="2.58,1.94 2.58,2.59 2.46,2.59 2.14,2.19 2.14,2.59 1.99,2.59 1.99,1.94 2.12,1.94 2.44,2.33 2.44,1.94 "/>
   <polygon fill="#444444" fill-rule="nonzero" points="0.24,2.33 0.15,2.43 0.15,2.59 0,2.59 0,1.94 0.15,1.94 0.15,2.24 0.43,1.94 0.6,1.94 0.33,2.23 0.61,2.59 0.44,2.59 0.24,2.33 "/>
   <polygon fill="#2196F3" fill-rule="nonzero" points="3.07,1.95 3.58,2.46 3.47,2.57 2.96,2.07 "/>
  </g>
 </g>
</svg>
